<?xml version="1.0" encoding="UTF-8"?>
<svg width="201px" height="57px" viewBox="0 0 201 57" version="1.1" xmlns="http://www.w3.org/2000/svg" xmlns:xlink="http://www.w3.org/1999/xlink">
    <title>BBC_logo_(1997-2021)</title>
    <g id="Page-1" stroke="none" stroke-width="1" fill="none" fill-rule="evenodd">
        <g id="BBC_logo_(1997-2021)" fill="#FFFFFF" fill-rule="nonzero">
            <path d="M108.905217,36.8385196 C108.905217,43.0324371 101.158476,42.6648539 101.158476,42.6648539 L93.411936,42.6648539 L93.411936,31.4727644 L101.158476,31.4727644 C109.130739,31.4195668 108.905217,36.8385196 108.905217,36.8385196 M93.411936,14.403943 L99.314904,14.403943 C105.4446,14.7261283 105.213249,19.2669212 105.213249,19.2669212 C105.213249,24.9098638 98.435328,25.0018596 98.435328,25.0018596 L93.411936,25.0018596 L93.411936,14.403943 Z M107.472288,27.2027592 C107.472288,27.2027592 112.774668,24.9546617 112.727433,18.9917337 C112.727433,18.9917337 113.533845,9.21937947 100.520904,8.02743384 L86.081466,8.02743384 L86.081466,48.9953671 L102.63261,48.9953671 C102.63261,48.9953671 116.461812,49.0363633 116.461812,37.4360924 C116.461611,37.4360924 116.788638,29.5418525 107.472288,27.2027592 M70.103373,0 L130.896426,0 L130.896426,57 L70.103373,57 L70.103373,0 Z M38.801241,36.8385196 C38.801241,43.0324371 31.0545,42.6648539 31.0545,42.6648539 L23.307357,42.6648539 L23.307357,31.4727644 L31.0545,31.4727644 C39.027366,31.4195668 38.801241,36.8385196 38.801241,36.8385196 M23.307357,14.403943 L29.211531,14.403943 C35.341428,14.7261283 35.109474,19.2669212 35.109474,19.2669212 C35.109474,24.9098638 28.331955,25.0018596 28.331955,25.0018596 L23.307357,25.0018596 L23.307357,14.403943 L23.307357,14.403943 Z M37.368915,27.2027592 C37.368915,27.2027592 42.672099,24.9546617 42.624462,18.9917337 C42.624462,18.9917337 43.430271,9.21937947 30.41733,8.02743384 L15.977289,8.02743384 L15.977289,48.9953671 L32.529438,48.9953671 C32.529438,48.9953671 46.358439,49.0363633 46.358439,37.4360924 C46.358439,37.4360924 46.68426,29.5418525 37.368915,27.2027592 M0,0 L60.793053,0 L60.793053,57 L0,57 L0,0 Z M188.598501,10.9644999 L188.598501,18.5333546 C188.598501,18.5333546 181.173159,13.9931617 172.967937,13.9017659 C172.967937,13.9017659 157.659576,13.6027795 156.969543,28.5020999 C156.969543,28.5020999 156.416592,42.2040749 172.783419,42.9848393 C172.783419,42.9848393 179.650584,43.8078017 188.966733,37.8968714 L188.966733,45.7355138 C188.966733,45.7355138 176.46996,53.1229768 161.993136,47.4330364 C161.993136,47.4330364 149.823591,43.0114381 149.360085,28.5020999 C149.360085,28.5020999 148.853967,13.5789806 165.084315,8.62520657 C165.084315,8.62520657 169.418478,6.97428187 177.207228,7.7080484 C177.207429,7.70784841 181.862589,8.16602751 188.598501,10.9644999 M140.206947,57 L201,57 L201,0 L140.206947,0 L140.206947,57 Z" id="Shape"></path>
        </g>
    </g>
</svg>